<svg xmlns="http://www.w3.org/2000/svg" width="98" height="32" viewBox="0 0 98 32">
    <g fill="none" fill-rule="evenodd">
        <g fill="#CB0000" fill-rule="nonzero">
            <g>
                <path d="M7.587 7.5c1.908.017 3.73.795 5.063 2.163V8.316c0-.121.048-.238.134-.325.086-.086.202-.134.324-.134h1.8c.251.004.457.21.457.464v12.7c0 2.677-.773 4.856-2.234 6.302-1.331 1.315-3.182 2.01-5.355 2.01-1.298.002-2.575-.329-3.71-.961-.115-.066-.197-.18-.223-.31-.026-.132.007-.268.09-.373l1.072-1.378c.137-.175.38-.226.575-.122.676.36 1.43.548 2.196.547 3.23 0 4.87-1.924 4.87-5.717v-.359C11.3 22 9.483 22.756 7.586 22.766 3.4 22.761.006 19.361 0 15.166 0 11.01 3.474 7.5 7.587 7.5zm49.337-4.827c.25.002.455.208.455.461v18.942c-.001.253-.206.458-.458.459h-1.704c-.253 0-.459-.205-.46-.459v-1.423c-1.33 1.418-3.183 2.229-5.126 2.242-4.112 0-7.587-3.509-7.587-7.664 0-4.2 3.398-7.606 7.59-7.609 1.934.008 3.783.798 5.127 2.19V3.133c0-.254.206-.46.46-.46h1.703zm29.323 4.96c4.048.13 7.342 3.605 7.342 7.746v.623c0 .253-.206.458-.459.458H81.285c.553 2.242 2.495 3.841 4.717 3.841 1.476-.009 2.865-.705 3.757-1.883l.068-.087h2.411c.163-.001.313.085.395.225.084.142.086.317.005.461-1.346 2.403-3.885 3.887-6.636 3.878-4.112 0-7.586-3.509-7.586-7.664.01-2.055.847-4.02 2.32-5.449 1.474-1.43 3.46-2.204 5.511-2.148zM75.188 2.666c.122 0 .239.048.325.134.086.087.134.204.134.326v18.942c0 .253-.206.458-.459.458h-1.702c-.254 0-.459-.205-.46-.458v-1.424c-1.33 1.419-3.184 2.23-5.127 2.243-4.112 0-7.587-3.51-7.587-7.665.005-4.196 3.399-7.596 7.587-7.6 1.934.007 3.783.796 5.127 2.19v-6.68c0-.254.206-.46.46-.46h1.702zM38.37 8.115c.253 0 .459.206.459.46V22.34c0 .122-.048.239-.135.325-.086.086-.202.134-.324.134h-1.8c-.122 0-.238-.048-.325-.134-.086-.086-.134-.203-.134-.325V8.575c0-.254.205-.46.459-.46zm-6.81-.258c.254 0 .46.205.46.46v13.768c0 .254-.206.46-.46.46h-1.703c-.253 0-.459-.206-.459-.46v-.932c-1.167 1.061-2.683 1.618-4.417 1.618-4.232 0-6.038-1.97-6.038-6.569V8.319c0-.254.205-.46.459-.46h1.704c.253 0 .459.206.459.46v7.883c0 2.637 1.148 3.972 3.416 3.972 2.85 0 4.417-1.606 4.417-4.522V8.316c0-.254.206-.46.46-.46zm65.408 11.412c.098 0 .19.039.26.108.068.069.107.162.106.26v1.987c0 .203-.164.367-.366.367h-1.984c-.203 0-.367-.164-.367-.367v-1.987c0-.098.039-.191.107-.26.069-.07.162-.108.26-.108h1.984zM49.57 10.222c-2.698 0-4.809 2.21-4.809 5.007 0 2.796 2.16 5.072 4.809 5.072 2.697 0 5.062-2.358 5.062-5.072 0-2.715-2.318-5.007-5.062-5.007zm18.266.006c-2.696 0-4.808 2.204-4.808 5 0 2.797 2.16 5.073 4.808 5.073 2.695 0 5.064-2.352 5.064-5.066s-2.32-5.007-5.064-5.007zm-60.314-.133c-2.653 0-4.808 2.263-4.808 5.071 0 2.809 2.114 5.007 4.808 5.007 2.745 0 5.063-2.305 5.063-5.007 0-2.702-2.365-5.071-5.063-5.071zm78.48.129c-2.238 0-4.138 1.512-4.712 3.71h9.425c-.572-2.166-2.51-3.71-4.713-3.71zM38.461 3.296c.202 0 .366.165.367.368v1.987c0 .204-.164.368-.367.368h-1.984c-.097 0-.19-.038-.26-.107-.069-.07-.107-.163-.107-.26V3.663c0-.203.164-.368.367-.368h1.984z" transform="translate(-24.000000, -32.000000) translate(24.000000, 32.000000)"/>
            </g>
        </g>
    </g>
</svg>
